<svg id="Layer_1" data-name="Layer 1" xmlns="http://www.w3.org/2000/svg" xmlns:xlink="http://www.w3.org/1999/xlink" width="112.25" height="125.25" viewBox="0 0 112.25 125.25">
  <defs>
    <linearGradient id="linear-gradient" x1="56.125" y1="0.125" x2="56.125" y2="125.125" gradientUnits="userSpaceOnUse">
      <stop offset="0.25" stop-color="#ffe121"/>
      <stop offset="1" stop-color="#fff" stop-opacity="0"/>
    </linearGradient>
  </defs>
  <path d="M10.00374,125.125V101.03984l46.004-38.05608A103.78854,103.78854,0,0,0,63.859,55.85a27.58034,27.58034,0,0,0,5.064-6.89232,17.42861,17.42861,0,0,0,1.77309-7.8858,15.58817,15.58817,0,0,0-2.01457-8.12728A13.62617,13.62617,0,0,0,63.107,27.73566a17.53509,17.53509,0,0,0-8.18937-1.84209,17.17652,17.17652,0,0,0-8.15488,1.86969,12.92836,12.92836,0,0,0-5.45038,5.478,18.48789,18.48789,0,0,0-1.92488,8.7896H7.59591q0-12.99813,5.83674-22.39486A38.20166,38.20166,0,0,1,29.93558,5.18213Q40.58451.1319,54.91764.125q14.81951,0,25.68578,4.726A38.60964,38.60964,0,0,1,97.403,18.132a34.29658,34.29658,0,0,1,5.92643,20.04913,36.126,36.126,0,0,1-2.946,14.11579q-2.95975,7.0165-10.59719,15.50944a217.87617,217.87617,0,0,1-21.73943,20.2285L56.48376,97.66612v.72442h48.17033V125.125Z" style="isolation: isolate;fill: url(#linear-gradient)"/>
</svg>
