<svg id="Layer_1" data-name="Layer 1" xmlns="http://www.w3.org/2000/svg" xmlns:xlink="http://www.w3.org/1999/xlink" width="112.25" height="125.25" viewBox="0 0 112.25 125.25">
  <defs>
    <linearGradient id="linear-gradient" x1="56.125" y1="0.125" x2="56.125" y2="125.125" gradientUnits="userSpaceOnUse">
      <stop offset="0.25" stop-color="#ffe121"/>
      <stop offset="1" stop-color="#fff" stop-opacity="0"/>
    </linearGradient>
  </defs>
  <path d="M55.53175,125.125a62.25814,62.25814,0,0,1-25.52146-4.95589,42.44428,42.44428,0,0,1-17.49537-13.69676,33.5215,33.5215,0,0,1-6.4127-20.08224H39.37066a10.39159,10.39159,0,0,0,2.16479,6.26974A13.94319,13.94319,0,0,0,47.32867,96.969,21.70686,21.70686,0,0,0,55.77,98.51434a18.94735,18.94735,0,0,0,8.08055-1.63381,13.06738,13.06738,0,0,0,5.45965-4.54744,11.34629,11.34629,0,0,0,1.90611-6.65777,9.93754,9.93754,0,0,0-2.23288-6.53523A14.91928,14.91928,0,0,0,62.598,74.688a25.79243,25.79243,0,0,0-9.442-1.60658H40.79343V50.26932H53.15592a22.08638,22.08638,0,0,0,8.7-1.60658,13.80682,13.80682,0,0,0,5.88172-4.45213,10.37342,10.37342,0,0,0,2.04906-6.53523,10.87939,10.87939,0,0,0-1.7223-6.297,12.04164,12.04164,0,0,0-4.9627-4.28194A16.59143,16.59143,0,0,0,55.77,25.55115a19.28431,19.28431,0,0,0-8.05331,1.60658,13.40673,13.40673,0,0,0-5.555,4.45894,11.29252,11.29252,0,0,0-2.0763,6.53523H8.47805a33.45658,33.45658,0,0,1,6.14721-19.72824A40.85232,40.85232,0,0,1,31.35138,4.9992,58.04206,58.04206,0,0,1,55.77.125,58.61166,58.61166,0,0,1,79.62363,4.69967,39.17131,39.17131,0,0,1,95.83918,17.26638a29.822,29.822,0,0,1,5.79321,18.27143,21.39123,21.39123,0,0,1-6.97772,16.75335q-7.10707,6.53523-17.9719,7.71975v.953q14.72471,1.60317,22.15853,8.99957a24.7272,24.7272,0,0,1,7.30449,18.56415,29.65531,29.65531,0,0,1-6.38547,18.95218q-6.44334,8.261-17.8834,12.95475Q70.44026,125.1216,55.53175,125.125Z" style="isolation: isolate;fill: url(#linear-gradient)"/>
</svg>
